<svg width="68" height="68" viewBox="0 0 68 68" fill="none" xmlns="http://www.w3.org/2000/svg">
<mask id="mask0_1047_2038" style="mask-type:alpha" maskUnits="userSpaceOnUse" x="4" y="4" width="60" height="60">
<path d="M34 64C50.5685 64 64 50.5685 64 34C64 17.4315 50.5685 4 34 4C17.4315 4 4 17.4315 4 34C4 50.5685 17.4315 64 34 64Z" fill="white"/>
</mask>
<g mask="url(#mask0_1047_2038)">
<path d="M34 64C50.5685 64 64 50.5685 64 34C64 17.4315 50.5685 4 34 4C17.4315 4 4 17.4315 4 34C4 50.5685 17.4315 64 34 64Z" fill="#414141"/>
<path fill-rule="evenodd" clip-rule="evenodd" d="M33.9994 64.1521H56.3084V57.0471C56.3084 54.7001 54.7034 51.7311 52.7444 50.4521L41.8744 43.8511C41.0244 43.3471 40.0494 42.6141 40.0494 40.4661C40.0494 39.0601 41.2354 37.9471 41.5914 37.5061C43.3368 35.6133 44.3045 33.1319 44.3014 30.5571V25.2921C44.3014 19.5841 39.6914 16.3081 33.9994 16.3081C28.3074 16.3081 23.6974 19.5841 23.6974 25.2921V30.5571C23.6974 33.2471 24.7294 35.6751 26.4074 37.5051C26.7644 37.9471 27.9504 39.0601 27.9504 40.4651C27.9504 42.6141 26.9744 43.3471 26.1244 43.8511L15.2534 50.4521C13.2944 51.7321 11.6934 54.7001 11.6934 57.0471V64.1521H33.9994V64.1521Z" fill="#595959"/>
</g>
</svg>
